<?xml version="1.0" encoding="UTF-8" standalone="no"?><!DOCTYPE svg PUBLIC "-//W3C//DTD SVG 1.1//EN" "http://www.w3.org/Graphics/SVG/1.1/DTD/svg11.dtd"><svg width="100%" height="100%" viewBox="0 0 5980 3946" version="1.1" xmlns="http://www.w3.org/2000/svg" xmlns:xlink="http://www.w3.org/1999/xlink" xml:space="preserve" xmlns:serif="http://www.serif.com/" style="fill-rule:evenodd;clip-rule:evenodd;stroke-linejoin:round;stroke-miterlimit:2;"><rect x="0" y="0" width="5979.08" height="3945.83" style="fill:#fff;fill-opacity:0;"/><path d="M2970.11,1535.75c-548.471,-0 -1046.78,65.937 -1415.71,173.396l0,917.908c368.925,107.458 867.238,173.392 1415.71,173.392c627.737,-0 1189.73,-86.371 1567.23,-222.509l-0.001,-819.658c-377.499,-136.146 -939.491,-222.529 -1567.23,-222.529" style="fill:#8f1f1d;fill-rule:nonzero;"/><path d="M4561.86,2366.55c-16.067,-44.429 -19.288,-100.642 -5.667,-154.842c24.375,-97.037 93.421,-150.825 154.221,-120.137c15.075,7.612 28.221,19.708 39.112,35.075c0.996,-0.004 1.996,-0 2.979,0.067c0,-0 185.634,221.275 13.805,483.345c-3.734,14.871 -318.892,382.159 -391.846,393.85c-47.755,7.646 62.041,-374.996 187.395,-637.358" style="fill:#8f1f1d;fill-rule:nonzero;"/><path d="M1516.26,2323.13c22.083,-40.129 29.825,-94.95 17.57,-151.775c-21.941,-101.733 -99.625,-171.287 -173.508,-155.354c-18.325,3.95 -34.687,12.8 -48.608,25.413c-1.175,-0.246 -2.35,-0.471 -3.521,-0.638c-0,0 -234.55,174.8 -50.238,474.683c3.355,15.588 349.38,453.492 434.63,482.35c55.795,18.875 -46.863,-385.529 -176.325,-674.679" style="fill:#8f1f1d;fill-rule:nonzero;"/><path d="M1187.05,2348.32l0.029,0.062c0.771,0.6 1.487,1.15 -0.029,-0.062" style="fill:#e23a26;fill-rule:nonzero;"/><path d="M4918.93,2035.14c-3.667,-12.767 -7.317,-25.525 -11.092,-38.176l127.846,-185.212c13.042,-18.842 15.713,-43.325 7.209,-64.813c-8.5,-21.375 -27.042,-36.708 -49,-40.458l-216.196,-36.687c-8.367,-17.092 -17.146,-33.925 -25.954,-50.625l90.82,-207.929c9.346,-21.196 7.371,-45.813 -5.012,-65.034c-12.338,-19.316 -33.292,-30.6 -55.621,-29.721l-219.4,7.971c-11.362,-14.791 -22.9,-29.45 -34.675,-43.837l50.425,-222.875c5.104,-22.638 -1.341,-46.325 -17.1,-62.767c-15.675,-16.383 -38.454,-23.162 -60.108,-17.846l-213.704,52.534c-13.838,-12.23 -27.913,-24.305 -42.142,-36.138l7.704,-228.808c0.821,-23.163 -9.975,-45.175 -28.521,-58.021c-18.52,-12.933 -42.054,-14.888 -62.312,-5.275l-199.367,94.779c-16.058,-9.208 -32.2,-18.333 -48.516,-27.154l-35.23,-225.479c-3.57,-22.846 -18.275,-42.246 -38.858,-51.109c-20.512,-8.904 -44.033,-6.029 -62.046,7.534l-177.746,133.362c-17.5,-5.812 -35.079,-11.383 -52.883,-16.712l-76.608,-213.817c-7.792,-21.787 -25.759,-37.796 -47.659,-42.296c-21.825,-4.466 -44.291,3.092 -59.429,20.009l-149.612,167.379c-18.092,-2.084 -36.188,-3.984 -54.346,-5.546l-115.513,-194.638c-11.712,-19.716 -32.379,-31.716 -54.65,-31.716c-22.225,-0 -42.933,12 -54.541,31.716l-115.554,194.638c-18.159,1.562 -36.342,3.462 -54.4,5.546l-149.625,-167.379c-15.15,-16.917 -37.696,-24.475 -59.45,-20.009c-21.896,4.55 -39.888,20.509 -47.638,42.296l-76.675,213.817c-17.75,5.329 -35.337,10.946 -52.879,16.712l-177.683,-133.362c-18.067,-13.609 -41.584,-16.479 -62.15,-7.534c-20.496,8.863 -35.255,28.263 -38.805,51.109l-35.254,225.479c-16.308,8.821 -32.454,17.892 -48.554,27.154l-199.342,-94.783c-20.241,-9.65 -43.871,-7.659 -62.308,5.275c-18.521,12.845 -29.342,34.858 -28.5,58.02l7.646,228.809c-14.188,11.833 -28.225,23.908 -42.134,36.137l-213.662,-52.533c-21.713,-5.271 -44.458,1.462 -60.171,17.846c-15.812,16.441 -22.217,40.129 -17.137,62.766l50.329,222.875c-11.675,14.446 -23.229,29.046 -34.554,43.838l-219.396,-7.971c-22.142,-0.654 -43.275,10.404 -55.65,29.721c-12.392,19.221 -14.271,43.837 -5.046,65.033l90.892,207.93c-8.83,16.699 -17.6,33.533 -26.038,50.624l-216.175,36.688c-21.962,3.7 -40.479,19.025 -49.021,40.458c-8.487,21.488 -5.729,45.971 7.229,64.813l127.875,185.212c-0.983,3.267 -1.895,6.567 -2.875,9.85l-70.262,74.629l188.921,266.875c-0,0 1813.13,836.38 3494.99,14.15c192.117,-34.466 236.896,-327.325 236.896,-327.325" style="fill:#e33b26;fill-rule:nonzero;"/><path d="M3315.48,1860.65c0,0 200.675,-219.725 401.35,0c0,0 157.684,292.992 0,439.471c0,0 -258.008,205.096 -401.35,0c0,-0.004 -172.008,-161.15 0,-439.471" style="fill-rule:nonzero;"/><path d="M3563.14,2004.57c-0,82.425 -48.584,149.25 -108.505,149.25c-59.912,-0 -108.499,-66.825 -108.499,-149.25c-0.001,-82.425 48.587,-149.254 108.499,-149.254c59.921,-0.005 108.505,66.829 108.505,149.254" style="fill:#fff;fill-rule:nonzero;"/><path d="M2410,1792.2c0,0 351.817,-155.771 447.838,191.913c-0,-0 100.587,405.254 -288.913,428.129c0,-0 -496.679,-95.663 -158.925,-620.042" style="fill-rule:nonzero;"/><rect x="780.933" y="314.704" width="4416.67" height="3258.33" style="fill:none;"/><path d="M2614.64,2004.57c-0,85.745 -50.542,155.291 -112.896,155.291c-62.329,0 -112.883,-69.541 -112.883,-155.291c-0.001,-85.763 50.554,-155.292 112.883,-155.292c62.354,0 112.896,69.529 112.896,155.292" style="fill:#fff;fill-rule:nonzero;"/><path d="M1245.94,2394.77c45.696,-51.929 156.712,-114.821 148.208,-192.842c-15.221,-139.691 -131.067,-241.662 -258.746,-227.742c-31.662,3.446 -61.075,13.717 -87.179,29.313c-1.929,-0.442 -3.854,-0.879 -5.783,-1.225c-0,-0 -431.8,211.971 -185.684,636.071c2.321,21.404 491.03,648.616 628.28,696.379c89.829,31.258 -82.963,-536 -239.096,-939.954" style="fill:#e33b26;fill-rule:nonzero;"/><path d="M4754.05,2375.84c-52.883,-44.584 -192.342,-85.075 -195.5,-163.492c-5.646,-140.404 93.8,-258.421 222.133,-263.583c31.825,-1.284 62.43,4.512 90.559,16.071c1.841,-0.725 3.683,-1.446 5.537,-2.071c0,-0 458.438,145.629 277.896,601.525c0.875,21.512 -389.45,714.233 -518.104,781.812c-84.2,44.234 22.946,-547.625 117.479,-970.262" style="fill:#e33b26;fill-rule:nonzero;"/><rect x="781.183" y="316.013" width="4415.62" height="3257.03" style="fill:none;"/><rect x="780.933" y="314.704" width="4416.67" height="3258.33" style="fill:none;"/><g><path d="M1179.77,2356.3c-0,-0 -571.725,-20.592 -673.417,-586.504l239.983,-105.946c0,-0 -57.966,403.987 444.23,458.425l-10.796,234.025" style="fill:#e33b26;fill-rule:nonzero;"/><path d="M531.467,1387.85c-0,-0 -104.021,-207.392 -274.196,-471.921c-179.267,88.388 -268.4,330.117 -201.096,573.592c74.358,268.991 311.454,438.166 529.571,377.875c218.117,-60.292 334.658,-327.229 260.296,-596.217c-32.954,-119.242 -97.921,-218.829 -179.013,-287.546c-39.483,212.675 -135.562,404.217 -135.562,404.217" style="fill:#e33b26;fill-rule:nonzero;"/></g><rect x="781.183" y="316.013" width="4415.62" height="3257.03" style="fill:none;"/><g><path d="M4783.38,2356.3c0,-0 571.725,-20.592 673.417,-586.504l-239.983,-105.95c-0,-0 57.966,403.987 -444.229,458.425l10.795,234.029" style="fill:#e33b26;fill-rule:nonzero;"/><path d="M5431.68,1387.85c0,-0 104.025,-207.392 274.2,-471.921c179.263,88.383 268.4,330.117 201.092,573.592c-74.358,268.991 -311.45,438.166 -529.567,377.871c-218.116,-60.292 -334.658,-327.225 -260.3,-596.213c32.955,-119.242 97.921,-218.829 179.017,-287.546c39.475,212.675 135.558,404.217 135.558,404.217" style="fill:#e33b26;fill-rule:nonzero;"/></g><path d="M3366.23,2612.26c-29.712,-244.729 -300.804,-255.962 -300.804,-255.962c-212.233,46.779 -246.596,197.371 -239.133,312.933l539.937,-56.971Z" style="fill-rule:nonzero;"/></svg>