<?xml version="1.0" encoding="UTF-8" standalone="no"?><!DOCTYPE svg PUBLIC "-//W3C//DTD SVG 1.1//EN" "http://www.w3.org/Graphics/SVG/1.1/DTD/svg11.dtd"><svg width="100%" height="100%" viewBox="0 0 5246 3530" version="1.1" xmlns="http://www.w3.org/2000/svg" xmlns:xlink="http://www.w3.org/1999/xlink" xml:space="preserve" xmlns:serif="http://www.serif.com/" style="fill-rule:evenodd;clip-rule:evenodd;stroke-linejoin:round;stroke-miterlimit:2;"><rect x="0" y="0" width="5245.83" height="3529.17" style="fill:#fff;fill-opacity:0;"/><path d="M2943.35,1408.54c-548.471,-0 -1046.78,65.937 -1415.71,173.396l-0,917.908c368.925,107.458 867.237,173.392 1415.71,173.392c627.737,-0 1189.73,-86.371 1567.23,-222.509l-0,-819.658c-377.496,-136.15 -939.488,-222.529 -1567.23,-222.529" style="fill:#8f1f1d;fill-rule:nonzero;"/><path d="M4535.1,2239.34c-16.067,-44.429 -19.288,-100.642 -5.667,-154.842c24.375,-97.037 93.421,-150.825 154.221,-120.137c15.075,7.612 28.221,19.708 39.113,35.075c0.995,-0.005 1.995,-0 2.979,0.066c-0,0 185.633,221.275 13.804,483.346c-3.734,14.871 -318.892,382.158 -391.846,393.85c-47.754,7.65 62.042,-374.992 187.396,-637.358" style="fill:#8f1f1d;fill-rule:nonzero;"/><path d="M1489.5,2195.92c22.083,-40.129 29.825,-94.95 17.571,-151.775c-21.942,-101.733 -99.625,-171.288 -173.509,-155.354c-18.325,3.95 -34.687,12.8 -48.608,25.412c-1.175,-0.246 -2.35,-0.471 -3.521,-0.637c0,-0 -234.55,174.8 -50.237,474.683c3.354,15.588 349.379,453.492 434.629,482.35c55.796,18.879 -46.863,-385.525 -176.325,-674.679" style="fill:#8f1f1d;fill-rule:nonzero;"/><path d="M1168.61,2229.44l0.029,0.062c0.771,0.604 1.487,1.15 -0.03,-0.062" style="fill:#e23a26;fill-rule:nonzero;"/><path d="M4892.16,1907.93c-3.667,-12.766 -7.317,-25.525 -11.092,-38.175l127.846,-185.212c13.041,-18.842 15.712,-43.325 7.208,-64.813c-8.5,-21.375 -27.042,-36.708 -49,-40.458l-216.196,-36.688c-8.367,-17.091 -17.146,-33.925 -25.954,-50.625l90.821,-207.929c9.346,-21.196 7.371,-45.812 -5.013,-65.033c-12.337,-19.317 -33.291,-30.6 -55.621,-29.721l-219.4,7.971c-11.362,-14.792 -22.9,-29.45 -34.675,-43.838l50.426,-222.875c5.104,-22.637 -1.342,-46.325 -17.101,-62.766c-15.675,-16.384 -38.454,-23.163 -60.108,-17.846l-213.704,52.533c-13.838,-12.229 -27.913,-24.304 -42.142,-36.137l7.704,-228.809c0.821,-23.162 -9.975,-45.175 -28.52,-58.02c-18.521,-12.934 -42.055,-14.888 -62.313,-5.275l-199.367,94.779c-16.058,-9.209 -32.199,-18.334 -48.516,-27.154l-35.229,-225.48c-3.571,-22.845 -18.275,-42.245 -38.859,-51.108c-20.512,-8.904 -44.033,-6.029 -62.046,7.533l-177.745,133.363c-17.5,-5.813 -35.08,-11.383 -52.884,-16.713l-76.608,-213.816c-7.792,-21.788 -25.758,-37.796 -47.658,-42.296c-21.825,-4.467 -44.292,3.092 -59.43,20.008l-149.612,167.379c-18.092,-2.083 -36.188,-3.983 -54.346,-5.546l-115.512,-194.637c-11.713,-19.717 -32.38,-31.717 -54.65,-31.717c-22.225,0 -42.934,12 -54.542,31.717l-115.554,194.637c-18.159,1.563 -36.342,3.463 -54.4,5.546l-149.625,-167.379c-15.15,-16.917 -37.696,-24.475 -59.45,-20.008c-21.896,4.55 -39.888,20.508 -47.638,42.296l-76.675,213.816c-17.75,5.329 -35.337,10.946 -52.879,16.713l-177.683,-133.363c-18.067,-13.608 -41.584,-16.479 -62.15,-7.533c-20.496,8.862 -35.254,28.262 -38.804,51.108l-35.255,225.479c-16.308,8.821 -32.454,17.892 -48.554,27.155l-199.341,-94.78c-20.242,-9.65 -43.871,-7.658 -62.309,5.275c-18.521,12.846 -29.341,34.859 -28.5,58.021l7.646,228.809c-14.187,11.833 -28.225,23.908 -42.133,36.137l-213.663,-52.533c-21.712,-5.271 -44.458,1.462 -60.171,17.846c-15.812,16.441 -22.216,40.129 -17.137,62.766l50.329,222.875c-11.675,14.446 -23.229,29.046 -34.554,43.838l-219.396,-7.971c-22.142,-0.654 -43.275,10.404 -55.65,29.721c-12.392,19.221 -14.271,43.837 -5.046,65.033l90.892,207.929c-8.829,16.7 -17.6,33.534 -26.038,50.625l-216.175,36.688c-21.962,3.7 -40.479,19.025 -49.02,40.458c-8.488,21.488 -5.73,45.971 7.229,64.813l127.875,185.212c-0.984,3.267 -1.896,6.567 -2.875,9.85l-70.263,74.629l188.921,266.875c0,0 1813.13,836.379 3494.99,14.15c192.116,-34.471 236.895,-327.329 236.895,-327.329" style="fill:#e33b26;fill-rule:nonzero;"/><path d="M3285.95,1817.82c0,-0 225.45,-194.175 398.442,47.917c-0,-0 121.554,309.7 -52.471,436.283c0,-0 -280.637,172.804 -398.446,-47.917c0,0 -151.521,-180.521 52.475,-436.283" style="fill-rule:nonzero;"/><path d="M3515.2,1934.82c-10.217,84.937 -68.567,147.779 -130.317,140.35c-61.737,-7.421 -103.525,-82.313 -93.312,-167.25c10.217,-84.938 68.571,-147.784 130.308,-140.363c61.75,7.434 103.538,82.325 93.321,167.263" style="fill:#fff;fill-rule:nonzero;"/><path d="M2387.29,1663.81c-0.001,-0.001 359.933,-110.205 412.587,238.737c0,-0 50.358,405.392 -330.65,382.104c-0.004,0 -471.275,-150.946 -81.938,-620.842" style="fill-rule:nonzero;"/><rect x="754.167" y="187.5" width="4416.67" height="3258.33" style="fill:none;"/><path d="M2549.69,1838.85c-10.534,87.588 -70.705,152.421 -134.405,144.758c-63.67,-7.654 -106.766,-84.908 -96.229,-172.496c10.538,-87.608 70.721,-152.42 134.388,-144.762c63.696,7.662 106.783,84.892 96.245,172.5" style="fill:#fff;fill-rule:nonzero;"/><path d="M1219.17,2267.57c45.696,-51.929 156.713,-114.821 148.208,-192.842c-15.221,-139.692 -131.066,-241.662 -258.746,-227.742c-31.662,3.446 -61.075,13.717 -87.179,29.313c-1.929,-0.442 -3.854,-0.879 -5.783,-1.225c-0,-0 -431.8,211.971 -185.683,636.071c2.32,21.404 491.029,648.616 628.279,696.379c89.829,31.258 -82.963,-536 -239.096,-939.954" style="fill:#e33b26;fill-rule:nonzero;"/><path d="M4727.29,2248.64c-52.884,-44.584 -192.342,-85.075 -195.501,-163.492c-5.645,-140.404 93.8,-258.421 222.134,-263.583c31.825,-1.284 62.429,4.512 90.558,16.07c1.842,-0.725 3.683,-1.445 5.538,-2.07c-0,-0 458.437,145.629 277.895,601.525c0.875,21.512 -389.45,714.233 -518.104,781.812c-84.2,44.229 22.946,-547.629 117.48,-970.262" style="fill:#e33b26;fill-rule:nonzero;"/><rect x="754.417" y="188.808" width="4415.62" height="3257.03" style="fill:none;"/><path d="M1550.59,2273.16c-0,-0.001 -5.763,572.066 554.858,699.72l116.892,-234.845c-0,-0.001 -406.23,39.295 -437.48,-464.871l-234.27,-0" style="fill:#e33b26;fill-rule:nonzero;"/><rect x="754.167" y="187.5" width="4416.67" height="3258.33" style="fill:none;"/><path d="M4405.68,2238.53c0,0 5.758,572.067 -554.862,699.721l-116.896,-234.846c-0,0 406.229,39.296 437.479,-464.871l234.279,0" style="fill:#e33b26;fill-rule:nonzero;"/><path d="M4000.7,2822c-84.375,-203.921 -356.646,-284.888 -608.129,-180.829c-221.359,91.583 -352.655,295.962 -323.434,482.687c174.775,-2.716 362.25,-14.046 544.734,-40.491c-0,-0 -107.654,174.012 -266.071,325.879c106.525,27.496 230.762,19.866 350.317,-29.6c251.487,-104.054 386.958,-353.721 302.583,-557.646" style="fill:#e33b26;fill-rule:nonzero;"/><path d="M2440.61,3108.27c0,-0 230.013,30.396 544.459,38.146c27.541,-197.963 -122.417,-407.467 -361.671,-488.509c-264.325,-89.533 -537.454,11.634 -610.059,225.963c-72.604,214.333 82.817,460.671 347.142,550.204c117.171,39.692 236.054,41.871 338.454,13.362c-153.796,-152.1 -258.325,-339.166 -258.325,-339.166" style="fill:#e33b26;fill-rule:nonzero;"/><rect x="754.417" y="188.808" width="4415.62" height="3257.03" style="fill:none;"/><g><path d="M384.642,1325.61l0.3,-52.345c-1.496,-102.771 37.291,-205.767 132.446,-308.288c67.779,-75.537 122.966,-139.554 125.9,-205.879c3.112,-70.346 -40.98,-120.625 -141.384,-127.079c-66.325,-2.934 -147.783,17.629 -201.641,51.496l-58.646,-222.096c76.233,-38.917 196.591,-73.871 339.287,-67.559c265.3,11.734 381.409,163.875 374.034,330.692c-6.755,152.746 -107.667,248.971 -187.775,330.008c-76,79.205 -111.621,156.167 -113.613,246.696l-1.6,36.179l-267.308,-11.825Zm-64.609,277.059c4.8,-108.534 82.455,-179.604 186.967,-174.988c108.529,4.8 175.583,82.275 172.796,190.896c-4.621,104.513 -78.433,179.783 -188.971,174.896c-106.525,-4.708 -175.417,-86.292 -170.792,-190.804Z" style="fill-rule:nonzero;"/></g></svg>