<svg xmlns="http://www.w3.org/2000/svg" xmlns:xlink="http://www.w3.org/1999/xlink" width="1024" zoomAndPan="magnify" viewBox="0 0 768 767.999994" height="1024" preserveAspectRatio="xMidYMid meet" version="1.0"><defs><g/></defs><g fill="#e66956" fill-opacity="0.302"><g transform="translate(75.399185, 714.546217)"><g><path d="M 38.40625 0 C 34.664062 0 31.726562 -1.066406 29.59375 -3.203125 C 27.46875 -5.335938 26.40625 -8.269531 26.40625 -12 L 26.40625 -547.984375 C 26.40625 -551.710938 27.46875 -554.644531 29.59375 -556.78125 C 31.726562 -558.914062 34.664062 -559.984375 38.40625 -559.984375 L 164.796875 -559.984375 C 168.535156 -559.984375 171.46875 -558.914062 173.59375 -556.78125 C 175.726562 -554.644531 176.796875 -551.710938 176.796875 -547.984375 L 176.796875 -133.59375 C 176.796875 -130.394531 178.394531 -128.796875 181.59375 -128.796875 L 382.40625 -128.796875 C 386.132812 -128.796875 389.066406 -127.726562 391.203125 -125.59375 C 393.335938 -123.46875 394.40625 -120.535156 394.40625 -116.796875 L 394.40625 -12 C 394.40625 -8.269531 393.335938 -5.335938 391.203125 -3.203125 C 389.066406 -1.066406 386.132812 0 382.40625 0 Z M 38.40625 0 "/></g></g></g><g fill="#e66956" fill-opacity="0.502"><g transform="translate(40.043735, 679.190769)"><g><path d="M 38.40625 0 C 34.664062 0 31.726562 -1.066406 29.59375 -3.203125 C 27.46875 -5.335938 26.40625 -8.269531 26.40625 -12 L 26.40625 -547.984375 C 26.40625 -551.710938 27.46875 -554.644531 29.59375 -556.78125 C 31.726562 -558.914062 34.664062 -559.984375 38.40625 -559.984375 L 164.796875 -559.984375 C 168.535156 -559.984375 171.46875 -558.914062 173.59375 -556.78125 C 175.726562 -554.644531 176.796875 -551.710938 176.796875 -547.984375 L 176.796875 -133.59375 C 176.796875 -130.394531 178.394531 -128.796875 181.59375 -128.796875 L 382.40625 -128.796875 C 386.132812 -128.796875 389.066406 -127.726562 391.203125 -125.59375 C 393.335938 -123.46875 394.40625 -120.535156 394.40625 -116.796875 L 394.40625 -12 C 394.40625 -8.269531 393.335938 -5.335938 391.203125 -3.203125 C 389.066406 -1.066406 386.132812 0 382.40625 0 Z M 38.40625 0 "/></g></g></g><g fill="#e66956" fill-opacity="1"><g transform="translate(4.688286, 643.835321)"><g><path d="M 38.40625 0 C 34.664062 0 31.726562 -1.066406 29.59375 -3.203125 C 27.46875 -5.335938 26.40625 -8.269531 26.40625 -12 L 26.40625 -547.984375 C 26.40625 -551.710938 27.46875 -554.644531 29.59375 -556.78125 C 31.726562 -558.914062 34.664062 -559.984375 38.40625 -559.984375 L 164.796875 -559.984375 C 168.535156 -559.984375 171.46875 -558.914062 173.59375 -556.78125 C 175.726562 -554.644531 176.796875 -551.710938 176.796875 -547.984375 L 176.796875 -133.59375 C 176.796875 -130.394531 178.394531 -128.796875 181.59375 -128.796875 L 382.40625 -128.796875 C 386.132812 -128.796875 389.066406 -127.726562 391.203125 -125.59375 C 393.335938 -123.46875 394.40625 -120.535156 394.40625 -116.796875 L 394.40625 -12 C 394.40625 -8.269531 393.335938 -5.335938 391.203125 -3.203125 C 389.066406 -1.066406 386.132812 0 382.40625 0 Z M 38.40625 0 "/></g></g></g><g fill="#e66956" fill-opacity="0.302"><g transform="translate(335.951677, 714.546217)"><g><path d="M 411.203125 -559.984375 C 414.929688 -559.984375 417.863281 -558.914062 420 -556.78125 C 422.132812 -554.644531 423.203125 -551.710938 423.203125 -547.984375 L 423.203125 -443.203125 C 423.203125 -439.460938 422.132812 -436.523438 420 -434.390625 C 417.863281 -432.265625 414.929688 -431.203125 411.203125 -431.203125 L 297.59375 -431.203125 C 294.394531 -431.203125 292.796875 -429.601562 292.796875 -426.40625 L 292.796875 -12 C 292.796875 -8.269531 291.726562 -5.335938 289.59375 -3.203125 C 287.46875 -1.066406 284.535156 0 280.796875 0 L 154.40625 0 C 150.664062 0 147.726562 -1.066406 145.59375 -3.203125 C 143.46875 -5.335938 142.40625 -8.269531 142.40625 -12 L 142.40625 -426.40625 C 142.40625 -429.601562 140.800781 -431.203125 137.59375 -431.203125 L 26.40625 -431.203125 C 22.664062 -431.203125 19.726562 -432.265625 17.59375 -434.390625 C 15.46875 -436.523438 14.40625 -439.460938 14.40625 -443.203125 L 14.40625 -547.984375 C 14.40625 -551.710938 15.46875 -554.644531 17.59375 -556.78125 C 19.726562 -558.914062 22.664062 -559.984375 26.40625 -559.984375 Z M 411.203125 -559.984375 "/></g></g></g><g fill="#e66956" fill-opacity="0.502"><g transform="translate(300.596208, 679.190769)"><g><path d="M 411.203125 -559.984375 C 414.929688 -559.984375 417.863281 -558.914062 420 -556.78125 C 422.132812 -554.644531 423.203125 -551.710938 423.203125 -547.984375 L 423.203125 -443.203125 C 423.203125 -439.460938 422.132812 -436.523438 420 -434.390625 C 417.863281 -432.265625 414.929688 -431.203125 411.203125 -431.203125 L 297.59375 -431.203125 C 294.394531 -431.203125 292.796875 -429.601562 292.796875 -426.40625 L 292.796875 -12 C 292.796875 -8.269531 291.726562 -5.335938 289.59375 -3.203125 C 287.46875 -1.066406 284.535156 0 280.796875 0 L 154.40625 0 C 150.664062 0 147.726562 -1.066406 145.59375 -3.203125 C 143.46875 -5.335938 142.40625 -8.269531 142.40625 -12 L 142.40625 -426.40625 C 142.40625 -429.601562 140.800781 -431.203125 137.59375 -431.203125 L 26.40625 -431.203125 C 22.664062 -431.203125 19.726562 -432.265625 17.59375 -434.390625 C 15.46875 -436.523438 14.40625 -439.460938 14.40625 -443.203125 L 14.40625 -547.984375 C 14.40625 -551.710938 15.46875 -554.644531 17.59375 -556.78125 C 19.726562 -558.914062 22.664062 -559.984375 26.40625 -559.984375 Z M 411.203125 -559.984375 "/></g></g></g><g fill="#e66956" fill-opacity="1"><g transform="translate(265.240771, 643.835321)"><g><path d="M 411.203125 -559.984375 C 414.929688 -559.984375 417.863281 -558.914062 420 -556.78125 C 422.132812 -554.644531 423.203125 -551.710938 423.203125 -547.984375 L 423.203125 -443.203125 C 423.203125 -439.460938 422.132812 -436.523438 420 -434.390625 C 417.863281 -432.265625 414.929688 -431.203125 411.203125 -431.203125 L 297.59375 -431.203125 C 294.394531 -431.203125 292.796875 -429.601562 292.796875 -426.40625 L 292.796875 -12 C 292.796875 -8.269531 291.726562 -5.335938 289.59375 -3.203125 C 287.46875 -1.066406 284.535156 0 280.796875 0 L 154.40625 0 C 150.664062 0 147.726562 -1.066406 145.59375 -3.203125 C 143.46875 -5.335938 142.40625 -8.269531 142.40625 -12 L 142.40625 -426.40625 C 142.40625 -429.601562 140.800781 -431.203125 137.59375 -431.203125 L 26.40625 -431.203125 C 22.664062 -431.203125 19.726562 -432.265625 17.59375 -434.390625 C 15.46875 -436.523438 14.40625 -439.460938 14.40625 -443.203125 L 14.40625 -547.984375 C 14.40625 -551.710938 15.46875 -554.644531 17.59375 -556.78125 C 19.726562 -558.914062 22.664062 -559.984375 26.40625 -559.984375 Z M 411.203125 -559.984375 "/></g></g></g></svg>